<svg width="42" height="51" viewBox="0 0 42 51" fill="none" xmlns="http://www.w3.org/2000/svg">
    <path
        d="M41.9827 10.7479C41.94 10.4973 41.8038 10.3028 41.6015 10.1904L31.8096 0.398533C31.6971 0.196288 31.5027 0.0599903 31.2521 0.0173597C31.1806 0.00134824 31.107 -0.00375542 31.032 0.00274924H7.55942C6.13149 0.00274924 5.03961 1.09463 5.03961 2.52255V5.04236H2.51981C1.09188 5.04236 0 6.13424 0 7.56217V47.8798C0 49.3077 1.09188 50.3996 2.51981 50.3996H34.4378C35.8657 50.3996 36.9576 49.3077 36.9576 47.8798V45.3599H39.4774C40.9053 45.3599 41.9972 44.2681 41.9972 42.8401V10.9681C42.0038 10.8931 41.9987 10.8194 41.9827 10.7479ZM39.1414 10.0822H32.7579C32.2539 10.0822 31.918 9.74623 31.918 9.24227V2.8587L39.1414 10.0822ZM35.2777 47.8798C35.2777 48.3837 34.9417 48.7197 34.4378 48.7197H2.51971C2.01574 48.7197 1.6798 48.3837 1.6798 47.8798V7.56237C1.6798 7.14236 2.01574 6.72246 2.51971 6.72246H4.95555H5.03951V42.8401C5.03951 44.2681 6.13139 45.3599 7.55932 45.3599H35.2776V47.8798H35.2777ZM40.3173 42.8401C40.3173 43.3441 39.9813 43.68 39.4774 43.68H36.0336H7.55942C7.05546 43.68 6.71951 43.3441 6.71951 42.8401V6.05048V2.52265C6.71951 2.10265 7.05546 1.68275 7.55942 1.68275H30.238V9.24227C30.238 10.6702 31.3298 11.7621 32.7578 11.7621H40.3173V42.8401Z"
        fill="white" />
    <path
        d="M11.7592 11.7621H26.8782C27.3821 11.7621 27.7181 11.4261 27.7181 10.9222C27.7181 10.4182 27.3821 10.0823 26.8782 10.0823H11.7592C11.2552 10.0823 10.9193 10.4182 10.9193 10.9222C10.9193 11.4261 11.2552 11.7621 11.7592 11.7621Z"
        fill="white" />
    <path
        d="M10.9193 15.9618C10.9193 16.4658 11.2552 16.8017 11.7592 16.8017H36.9575C37.4615 16.8017 37.7974 16.4658 37.7974 15.9618C37.7974 15.4578 37.4615 15.1219 36.9575 15.1219H11.7592C11.2552 15.1219 10.9193 15.4578 10.9193 15.9618Z"
        fill="white" />
    <path
        d="M36.9576 20.1616H11.7592C11.2552 20.1616 10.9193 20.4975 10.9193 21.0015C10.9193 21.5055 11.2552 21.8414 11.7592 21.8414H36.9575C37.4615 21.8414 37.7974 21.5055 37.7974 21.0015C37.7974 20.4975 37.4616 20.1616 36.9576 20.1616Z"
        fill="white" />
    <path
        d="M36.9576 25.2012H11.7592C11.2552 25.2012 10.9193 25.5371 10.9193 26.0411C10.9193 26.5451 11.2552 26.881 11.7592 26.881H36.9575C37.4615 26.881 37.7974 26.5451 37.7974 26.0411C37.7974 25.5371 37.4616 25.2012 36.9576 25.2012Z"
        fill="white" />
    <path
        d="M36.9576 30.2409H11.7592C11.2552 30.2409 10.9193 30.5768 10.9193 31.0808C10.9193 31.5848 11.2552 31.9207 11.7592 31.9207H36.9575C37.4615 31.9207 37.7974 31.5848 37.7974 31.0808C37.7974 30.5768 37.4616 30.2409 36.9576 30.2409Z"
        fill="white" />
    <path
        d="M36.9576 35.2806H11.7592C11.2552 35.2806 10.9193 35.6166 10.9193 36.1205C10.9193 36.6245 11.2552 36.9604 11.7592 36.9604H36.9575C37.4615 36.9604 37.7974 36.6245 37.7974 36.1205C37.7974 35.6166 37.4616 35.2806 36.9576 35.2806Z"
        fill="white" />
</svg>